Coordinates
version=1
nRows=11
nColumns=63
inDegrees=yes

Units are S.I. units (second, meters, Newtons, ...)
If the header above contains a line with 'inDegrees', this indicates whether rotational values are in degrees (yes) or radians (no).

endheader
time	pelvis_tilt	pelvis_list	pelvis_rotation	pelvis_tx	pelvis_ty	pelvis_tz	hip_flexion_r	hip_adduction_r	hip_rotation_r	knee_angle_r	knee_angle_r_beta	ankle_angle_r	subtalar_angle_r	mtp_angle_r	hip_flexion_l	hip_adduction_l	hip_rotation_l	knee_angle_l	knee_angle_l_beta	ankle_angle_l	subtalar_angle_l	mtp_angle_l	L5_S1_Flex_Ext	L5_S1_Lat_Bending	L5_S1_axial_rotation	L4_L5_Flex_Ext	L4_L5_Lat_Bending	L4_L5_axial_rotation	L3_L4_Flex_Ext	L3_L4_Lat_Bending	L3_L4_axial_rotation	L2_L3_Flex_Ext	L2_L3_Lat_Bending	L2_L3_axial_rotation	L1_L2_Flex_Ext	L1_L2_Lat_Bending	L1_L2_axial_rotation	L1_T12_Flex_Ext	L1_T12_Lat_Bending	L1_T12_axial_rotation	Abs_r3	Abs_r2	Abs_r1	Abs_t1	Abs_t2	neck_flexion	neck_bending	neck_rotation	arm_flex_r	arm_add_r	arm_rot_r	elbow_flex_r	pro_sup_r	wrist_flex_r	wrist_dev_r	arm_flex_l	arm_add_l	arm_rot_l	elbow_flex_l	pro_sup_l	wrist_flex_l	wrist_dev_l
      3.49056604	    -11.51298271	    -35.35085528	     73.09421338	      0.29536597	      0.72934793	      0.69019003	     49.18377909	      1.07122130	     11.64685395	     26.58733660	      0.46403656	     25.34848563	    -11.96722536	      0.00000000	     47.47095467	     -2.32066536	     -9.56896364	     28.13688987	      0.49108137	     37.43703851	      1.06856657	      0.00000000	      0.31303384	      0.07822975	      0.00147274	      0.58133515	      0.10404557	      0.00156478	      0.51428330	      0.19020781	      0.00156478	      0.35776638	      0.19020781	      0.00128865	      0.29068322	      0.15952611	      0.00119660	      0.17886754	      0.12117788	      0.00110455	      2.23596942	      0.88495058	      0.00819093	      0.00000000	      0.00000000	     27.96363475	     -0.59003374	     -7.19314505	     47.49223141	    -46.17867551	     79.12473759	     57.80388932	     89.33394083	     -4.15031642	      8.26043247	      4.28029296	    -10.59962440	     31.09617716	     51.90430802	     88.39591321	    -12.60121913	    -11.65941244
      3.50943396	    -10.96522830	    -35.23649260	     73.93048257	      0.29391106	      0.73008179	      0.69077863	     48.80969383	      0.80008274	     10.53580119	     26.24574671	      0.45807469	     25.35416208	    -11.43384163	      0.00000000	     47.25855245	     -2.07499281	     -8.51615477	     28.13708259	      0.49108473	     36.33482136	     -0.00041869	      0.00000000	      0.30634377	      0.17482139	     -0.07974379	      0.56891102	      0.23251245	     -0.08472778	      0.50329218	      0.42506073	     -0.08472778	      0.35012030	      0.42506073	     -0.06977582	      0.28447083	      0.35649578	     -0.06479183	      0.17504483	      0.27079834	     -0.05980784	      2.18818293	      1.97761454	     -0.44351105	      0.00000000	      0.00000000	     27.98575516	     -0.34227423	     -3.60578098	     48.42502437	    -40.79558496	     87.00548883	     48.43830398	     89.08243940	    -12.10719748	      3.13685036	      4.32160319	    -10.32702267	     31.91605426	     52.12779720	     88.48308882	    -16.76458889	    -13.44681010
      3.52830189	    -10.67965547	    -35.04164883	     74.35721329	      0.29339851	      0.73131195	      0.69088678	     48.26419487	      0.63160032	     10.00630258	     25.69347782	      0.44843578	     24.92208006	    -11.39787050	      0.00000000	     46.78534877	     -1.92111599	     -8.05103770	     27.84212972	      0.48593683	     35.15307762	     -0.57573303	      0.00000000	      0.31921063	      0.22256916	      0.13830400	      0.59280606	      0.29601699	      0.14694800	      0.52443115	      0.54115467	      0.14694800	      0.36482583	      0.54115467	      0.12101600	      0.29641899	      0.45386304	      0.11237200	      0.18239695	      0.34475964	      0.10372800	      2.28008962	      2.51774690	      0.76920536	      0.00000000	      0.00000000	     28.02896855	     -1.05279886	     -2.91253630	     46.43210241	    -36.88930115	     89.26359951	     40.83697102	     88.75210556	    -12.18277146	      2.85715215	      5.03242588	    -10.19391950	     33.80571340	     52.11706760	     88.62294875	    -17.80563875	    -14.34282108
      3.54716981	    -10.43443056	    -34.91188891	     74.63899354	      0.29309415	      0.73292923	      0.69049867	     47.65854572	      0.52760619	      9.53899415	     24.96949358	      0.43579988	     24.29690425	    -11.50183192	      0.00000000	     46.24788006	     -1.78970771	     -7.56980558	     27.29286641	      0.47635038	     33.79653929	     -1.37895284	      0.00000000	      0.36822117	      0.26834119	      0.43348098	      0.68382353	      0.35689378	      0.46057354	      0.60495055	      0.65244477	      0.46057354	      0.42083997	      0.65244477	      0.37929586	      0.34193017	      0.54720135	      0.35220329	      0.21040157	      0.41566050	      0.32511073	      2.63016696	      3.03552919	      2.41089115	      0.00000000	      0.00000000	     28.09559357	     -2.10893876	     -2.83955671	     43.98297895	    -33.78313941	     90.77466185	     34.35041794	     87.91148451	    -11.09652612	      2.67830562	      5.80205101	    -10.03122239	     36.23925921	     51.99936072	     88.63670774	    -18.73281805	    -15.03091700
      3.56603774	    -10.24004902	    -34.72644116	     74.90783151	      0.29308914	      0.73511100	      0.68957784	     46.82773823	      0.39460307	      9.20990191	     23.98664744	      0.41864597	     23.48801056	    -11.82780670	      0.00000000	     45.49445067	     -1.55889697	     -6.97687318	     26.40642684	      0.46087909	     32.28857221	     -2.43386443	      0.00000000	      0.42918533	      0.29595730	      0.76344070	      0.79704007	      0.39362321	      0.81115575	      0.70510857	      0.71959058	      0.81115575	      0.49051591	      0.71959058	      0.66801061	      0.39854149	      0.60351613	      0.62029557	      0.24523650	      0.45843786	      0.57258053	      3.06562786	      3.34792818	      4.24602815	      0.00000000	      0.00000000	     28.16784409	     -3.28483517	     -3.58669758	     40.80140335	    -31.56011928	     89.68360100	     29.30574398	     85.89574327	     -9.18448525	      2.71556722	      6.65900349	     -9.91902908	     39.01371616	     51.79522505	     88.57209924	    -19.06393435	    -15.10525326
      3.58490566	     -9.97424507	    -34.35525880	     75.19783630	      0.29340699	      0.73808527	      0.68827991	     45.61020629	      0.29244630	      8.94434545	     22.69211972	      0.39605220	     22.46960824	    -12.21974414	      0.00000000	     44.33585069	     -1.33884627	     -6.35802576	     25.12763105	      0.43855990	     30.69160208	     -3.40247201	      0.00000000	      0.46850609	      0.31545490	      1.08402046	      0.87006266	      0.41955502	      1.15177174	      0.76970865	      0.76699704	      1.15177174	      0.53545561	      0.76699704	      0.94851790	      0.43505475	      0.64327563	      0.88076662	      0.26770438	      0.48863964	      0.81301534	      3.34649215	      3.56848891	      6.02899658	      0.00000000	      0.00000000	     28.23000965	     -4.39436374	     -4.84644772	     37.33489954	    -29.91556493	     86.16184531	     25.77828003	     84.02555344	     -8.22443641	      3.49476409	      7.59694159	     -9.84336800	     41.66431560	     51.52090096	     88.54224043	    -18.35413368	    -14.42077323
      3.60377358	     -9.41127278	    -33.92595480	     75.87640637	      0.29352434	      0.74159851	      0.68663511	     44.09543677	      0.19958100	      8.33930155	     21.12728488	      0.36874068	     21.34515228	    -12.40161412	      0.00000000	     42.92852556	     -1.23967218	     -5.90744706	     23.59476142	      0.41180627	     29.20065252	     -3.57420203	      0.00000000	      0.50005651	      0.36904813	      1.25821273	      0.92865494	      0.49083401	      1.33685102	      0.82154283	      0.89730362	      1.33685102	      0.57151458	      0.89730362	      1.10093613	      0.46435247	      0.75256294	      1.02229784	      0.28573229	      0.57165555	      0.94365954	      3.57185361	      4.17474623	      6.99780171	      0.00000000	      0.00000000	     28.28408181	     -4.71146853	     -4.38268529	     34.70916240	    -28.35695570	     83.57133690	     23.22942461	     83.24411955	     -8.83489828	      4.09439197	      8.48434864	     -9.71509102	     44.02307333	     51.01437715	     88.55489201	    -17.39955313	    -13.62615736
      3.62264151	     -8.75203085	    -33.49107521	     76.59630301	      0.29358825	      0.74525677	      0.68503435	     42.45264559	      0.21109213	      7.81802573	     19.32742005	      0.33732712	     20.02718911	    -12.52278617	      0.00000000	     41.45539491	     -1.16188644	     -5.12480244	     21.95321982	      0.38315597	     27.66018428	     -4.25304188	      0.00000000	      0.52522268	      0.42343317	      1.40438735	      0.97539103	      0.56316611	      1.49216156	      0.86288833	      1.02953540	      1.49216156	      0.60027700	      1.02953540	      1.22883893	      0.48772178	      0.86346491	      1.14106472	      0.30011224	      0.65589798	      1.05329051	      3.75161305	      4.78996067	      7.81078112	      0.00000000	      0.00000000	     28.32509429	     -5.17187696	     -4.52374891	     32.14521649	    -27.23393910	     78.55889694	     22.10691242	     85.98711656	    -10.20707674	      5.43455611	      9.41837072	     -9.52716454	     46.43295685	     50.33658581	     88.60407824	    -17.25270525	    -13.07003417
      3.64150943	     -8.00106726	    -32.98807141	     77.41840575	      0.29375886	      0.74894984	      0.68366442	     40.74459498	      0.28423225	      7.19801271	     17.53610849	      0.30606283	     18.62625539	    -12.48359347	      0.00000000	     39.86947051	     -1.24876558	     -4.81043727	     20.24654789	      0.35336892	     26.53193506	     -3.98526315	      0.00000000	      0.53386328	      0.48393558	      1.46249853	      0.99143750	      0.64363433	      1.55390469	      0.87708398	      1.17664098	      1.55390469	      0.61015234	      1.17664098	      1.27968622	      0.49574544	      0.98684144	      1.18828006	      0.30504948	      0.74961622	      1.09687390	      3.81333203	      5.47437611	      8.13397810	      0.00000000	      0.00000000	     28.35288039	     -4.95445889	     -3.55086220	     30.98250534	    -25.65141442	     79.08631695	     20.24190279	     86.42857274	    -13.04357539	      5.35147706	     10.30885908	     -9.36707395	     48.47142455	     49.57020052	     88.70963568	    -16.89276453	    -12.44060254
      3.66037736	     -7.33632487	    -32.33748955	     78.14563599	      0.29410059	      0.75258899	      0.68233722	     38.88175005	      0.35939029	      6.86555575	     15.69799356	      0.27398167	     17.27885061	    -12.45436958	      0.00000000	     38.08972840	     -1.29122988	     -4.50505775	     18.40937638	      0.32130423	     25.60720832	     -3.76834812	      0.00000000	      0.51556157	      0.52786491	      1.50207699	      0.95744940	      0.70206034	      1.59595681	      0.84701611	      1.28345075	      1.59595681	      0.58923532	      1.28345075	      1.31431737	      0.47875048	      1.07642213	      1.22043756	      0.29459188	      0.81766275	      1.12655775	      3.68260475	      5.97131349	      8.35410162	      0.00000000	      0.00000000	     28.36816751	     -4.63797239	     -2.68193471	     30.10638621	    -23.93754288	     80.40285972	     18.22391902	     86.44263440	    -15.99059050	      4.64755745	     11.19174533	     -9.17873114	     50.33324105	     48.64933085	     88.81559306	    -16.72969982	    -11.76046882
      3.67924528	     -7.14399812	    -31.75024016	     78.48244298	      0.29582335	      0.75618429	      0.68041743	     37.11841614	      0.35839485	      7.40457197	     13.85726120	      0.24185483	     15.69311611	    -13.40789884	      0.00000000	     36.24770334	     -1.14622622	     -4.33472067	     16.29349525	      0.28437514	     24.68911434	     -3.60099560	      0.00000000	      0.52465873	      0.48313893	      1.62146268	      0.97434372	      0.64257477	      1.72280410	      0.86196182	      1.17470399	      1.72280410	      0.59963246	      1.17470399	      1.41877985	      0.48719809	      0.98521690	      1.31743843	      0.29979000	      0.74838220	      1.21609701	      3.74758482	      5.46536418	      9.01808901	      0.00000000	      0.00000000	     28.36971653	     -4.36351278	     -3.78226613	     29.69739922	    -16.76008137	    167.63484305	      0.80692724	      8.22217088	    -11.38904075	     -3.07851759	     12.25379098	     -9.31134473	     53.02591329	     47.45611693	     88.87243156	    -17.57458827	    -11.10116918
